<svg xmlns="http://www.w3.org/2000/svg" xmlns:xlink="http://www.w3.org/1999/xlink" width="276" height="93.514" viewBox="0 0 276 93.514">
  <defs>
    <clipPath id="clip-path">
      <path id="Path_244" data-name="Path 244" d="M0-248.452H276v-93.514H0Z" transform="translate(0 341.966)" fill="#fff"/>
    </clipPath>
  </defs>
  <g id="Group_214" data-name="Group 214" clip-path="url(#clip-path)">
    <g id="Group_189" data-name="Group 189" transform="translate(0 0)">
      <path id="Path_219" data-name="Path 219" d="M-248.452-124.226a46.757,46.757,0,0,1-46.757,46.757,46.757,46.757,0,0,1-46.757-46.757,46.757,46.757,0,0,1,46.757-46.757,46.757,46.757,0,0,1,46.757,46.757" transform="translate(341.966 170.983)" fill="#00dca5"/>
    </g>
    <g id="Group_190" data-name="Group 190" transform="translate(17.029 17.029)">
      <path id="Path_220" data-name="Path 220" d="M-140.991-30.062v-5.793h-6.079a29.593,29.593,0,0,0-17.26-5.522,29.592,29.592,0,0,0-17.26,5.522h-6.079v5.793a29.6,29.6,0,0,0-6.388,18.413,29.693,29.693,0,0,0,12.836,24.463l0-.005a15.209,15.209,0,0,0,1.526.93l15.362,8.137,15.362-8.137a15.151,15.151,0,0,0,1.61-.988l.005,0a29.692,29.692,0,0,0,12.751-24.4,29.6,29.6,0,0,0-6.388-18.413" transform="translate(194.058 41.377)" fill="#fff"/>
    </g>
    <g id="Group_191" data-name="Group 191" transform="translate(24.652 23.865)">
      <path id="Path_221" data-name="Path 221" d="M-59.522-43.988c-.2,0-.409,0-.61,0v-1.534a1.124,1.124,0,0,1,.193-.636c.043-.066.066-.1.112-.164.043.066.066.1.112.164a1.122,1.122,0,0,1,.193.636Zm-.305,2.17a3.053,3.053,0,0,1,1.082,1.111,3.039,3.039,0,0,1,.394,1.5v.475l.423.316a7.686,7.686,0,0,0,1.22-.478c-.409-3.145-.786-6.3-1.154-9.443a13.62,13.62,0,0,0-3.931,0c-.371,3.148-.748,6.3-1.154,9.443a7.572,7.572,0,0,0,1.22.478l.423-.316v-.475a3.042,3.042,0,0,1,1.476-2.607m2.173,4.76a4.368,4.368,0,0,0-1.98.518v5.459l.147-.072a4.148,4.148,0,0,1,1.834-.476,4.135,4.135,0,0,1,1.832.476l.482.236v-5.449l-.178-.094a4.5,4.5,0,0,0-2.137-.6m-2.53,5.906.153.075v-5.459a4.381,4.381,0,0,0-1.987-.521,4.5,4.5,0,0,0-2.136.6l-.179.094v5.449l.482-.236a4.142,4.142,0,0,1,1.834-.476,4.138,4.138,0,0,1,1.833.476m-6.082-5.465,3.019-2.275.005-.042c.248-1.913.483-3.821.7-5.63l-4.3,3.243c.181,1.509.374,3.1.578,4.7m-3.523-5.043a1.112,1.112,0,0,1,.2-.636c.043-.066.066-.1.109-.164.046.066.069.1.112.164a1.134,1.134,0,0,1,.2.636v1.534q-.306,0-.613,0Zm-1.66-2.82c-.368,3.151-.745,6.3-1.154,9.444a7,7,0,0,0,6.238,0c-.406-3.145-.783-6.293-1.154-9.444a13.638,13.638,0,0,0-3.93,0m1.814-1.814a8.873,8.873,0,0,1,2.7.37v-1.548a8.748,8.748,0,0,0-.882-.285q-.152.292-.3.586-.3-.055-.605-.086-.152-.345-.3-.69a8.833,8.833,0,0,0-.916,0q-.153.345-.3.69-.3.031-.605.086-.148-.294-.3-.586a8.677,8.677,0,0,0-.882.285v1.548a8.822,8.822,0,0,1,2.4-.37m2.118,1.494c.191-.275.384-.547.585-.815a9.76,9.76,0,0,0-5.1,0c.2.267.394.54.585.815a12.579,12.579,0,0,1,3.93,0m5.2-1.618-.536.409-.2.6-.5.378-.2-.294-.5.378-.2.6-.5.378-.2-.294-.5.378-.2.6-.5.378-.138-.342-.536.406s.126.962.153,1.189l4.394-3.312c.047-.391.173-1.441.173-1.441m2.337-3.738a8.88,8.88,0,0,1,2.7.37v-1.548a8.678,8.678,0,0,0-.882-.285q-.152.292-.3.586-.3-.055-.605-.086-.152-.345-.3-.69a8.825,8.825,0,0,0-.916,0q-.153.345-.3.69-.3.031-.605.086-.148-.294-.3-.586a8.7,8.7,0,0,0-.882.285v1.548a8.836,8.836,0,0,1,2.4-.37m2.118,1.494c.19-.275.384-.548.585-.815a9.761,9.761,0,0,0-5.1,0c.2.267.395.54.585.815a12.565,12.565,0,0,1,3.93,0m5.25,5.808-.536-.406-.138.342-.5-.378-.2-.6-.5-.378-.2.294-.5-.378-.2-.6-.5-.378-.2.294-.5-.378-.2-.6-.536-.409.173,1.441,4.394,3.312c.027-.227.153-1.189.153-1.189m2.6-3.44a8.822,8.822,0,0,1,2.4.37v-1.548a8.68,8.68,0,0,0-.882-.285q-.152.292-.3.586-.3-.055-.605-.086-.151-.345-.3-.69a8.829,8.829,0,0,0-.916,0q-.153.345-.3.69-.3.031-.605.086-.148-.294-.3-.586a8.726,8.726,0,0,0-.882.285v1.548a8.871,8.871,0,0,1,2.7-.37M-48.2-44.8c.19-.275.383-.548.585-.815a9.76,9.76,0,0,0-5.1,0c.2.267.395.54.585.815a12.581,12.581,0,0,1,3.93,0m-2.271,3.14a1.132,1.132,0,0,1,.193-.636c.046-.066.066-.1.112-.164.043.066.066.1.112.164a1.132,1.132,0,0,1,.193.636v1.534c-.2,0-.406,0-.61,0Zm-1.66-2.82q-.553,4.726-1.154,9.444a7,7,0,0,0,6.238,0q-.609-4.718-1.154-9.444a13.638,13.638,0,0,0-3.93,0m-4.27,5.587,3.019,2.275c.2-1.609.4-3.2.578-4.7l-4.3-3.243c.218,1.809.453,3.717.7,5.63Zm-3.422,8.776.589.422h3.915l.707-.367v-4.949L-55-35.4v5.021l-.963-.472a3.816,3.816,0,0,0-1.685-.441,3.821,3.821,0,0,0-1.687.442l-.5.242-.5-.243a3.818,3.818,0,0,0-1.686-.442,3.821,3.821,0,0,0-1.686.442l-.963.472v-5.072l-.369.435v4.956l.707.367h3.915ZM-39.631-28.5a1.41,1.41,0,0,1-1.41,1.41,1.41,1.41,0,0,1-1.41-1.41,1.409,1.409,0,0,1,1.41-1.41,1.409,1.409,0,0,1,1.41,1.41m0-9.518a1.409,1.409,0,0,1-1.41,1.41,1.409,1.409,0,0,1-1.41-1.41,1.41,1.41,0,0,1,1.41-1.41,1.41,1.41,0,0,1,1.41,1.41m0-9.515a1.41,1.41,0,0,1-1.41,1.41,1.41,1.41,0,0,1-1.41-1.41,1.409,1.409,0,0,1,1.41-1.41,1.409,1.409,0,0,1,1.41,1.41m0-9.783a1.409,1.409,0,0,1-1.41,1.41,1.409,1.409,0,0,1-1.41-1.41,1.411,1.411,0,0,1,1.41-1.41,1.41,1.41,0,0,1,1.41,1.41m-2.843,35.9A1.409,1.409,0,0,1-41.064-20a1.41,1.41,0,0,1-1.41,1.41A1.41,1.41,0,0,1-43.881-20a1.408,1.408,0,0,1,1.407-1.41M-44.1-25.437a7.4,7.4,0,0,1-1.056,3.807,7.368,7.368,0,0,1-2.869,2.713l-.314.167-5.976-3.226,10.215-5.5Zm0-7.991-15.716,8.48-15.722-8.5V-54.156H-44.1Zm-8.082-23.885a1.41,1.41,0,0,1-1.41,1.41A1.408,1.408,0,0,1-55-57.313a1.41,1.41,0,0,1,1.41-1.41,1.412,1.412,0,0,1,1.41,1.41m-12.557,0a1.408,1.408,0,0,1-1.41,1.41,1.408,1.408,0,0,1-1.407-1.41,1.41,1.41,0,0,1,1.407-1.41,1.41,1.41,0,0,1,1.41,1.41M-75.753-20.031a1.408,1.408,0,0,1-1.41,1.41,1.409,1.409,0,0,1-1.41-1.41,1.408,1.408,0,0,1,1.41-1.407,1.408,1.408,0,0,1,1.41,1.407M-77.3-57.313a1.408,1.408,0,0,1-1.41,1.41,1.41,1.41,0,0,1-1.41-1.41,1.412,1.412,0,0,1,1.41-1.41,1.41,1.41,0,0,1,1.41,1.41m-2.863,9.754a1.409,1.409,0,0,1,1.41-1.41,1.411,1.411,0,0,1,1.41,1.41,1.41,1.41,0,0,1-1.41,1.407,1.408,1.408,0,0,1-1.41-1.407m0,9.515a1.408,1.408,0,0,1,1.41-1.41,1.41,1.41,0,0,1,1.41,1.41,1.411,1.411,0,0,1-1.41,1.41,1.409,1.409,0,0,1-1.41-1.41m0,9.518a1.409,1.409,0,0,1,1.41-1.41,1.411,1.411,0,0,1,1.41,1.41,1.41,1.41,0,0,1-1.41,1.407,1.408,1.408,0,0,1-1.41-1.407m4.618,1.019,10.223,5.53L-71.3-18.75l-.316-.167a7.378,7.378,0,0,1-2.866-2.713,7.37,7.37,0,0,1-1.059-3.807Zm4.831,13.446a1.408,1.408,0,0,1,1.41-1.41,1.41,1.41,0,0,1,1.41,1.41,1.412,1.412,0,0,1-1.41,1.41,1.41,1.41,0,0,1-1.41-1.41m4.966-1.747,5.925-3.2,5.922,3.2-5.925,3.136Zm4.44,6.379a1.408,1.408,0,0,1,1.407-1.41,1.408,1.408,0,0,1,1.41,1.41,1.409,1.409,0,0,1-1.41,1.41A1.408,1.408,0,0,1-61.3-9.428m9.446-4.612a1.41,1.41,0,0,1,1.41-1.407,1.408,1.408,0,0,1,1.41,1.407,1.408,1.408,0,0,1-1.41,1.41,1.41,1.41,0,0,1-1.41-1.41m14.142-11.4V-60.544h-44.21v35.107a13.77,13.77,0,0,0,7.32,12.165l14.784,7.829,14.784-7.829a13.768,13.768,0,0,0,7.323-12.165" transform="translate(81.925 60.544)" fill="#003b3b"/>
    </g>
    <g id="Group_192" data-name="Group 192" transform="translate(5.498 5.471)">
      <path id="Path_222" data-name="Path 222" d="M-14.831-105.267a2.176,2.176,0,0,1-.33,1.083,2.059,2.059,0,0,1-.8.732,2.123,2.123,0,0,1-1.105.23l-3.35-.158.042-.888,3.343.158a1.349,1.349,0,0,0,.691-.134,1.159,1.159,0,0,0,.469-.43,1.3,1.3,0,0,0,.189-.633,1.27,1.27,0,0,0-.128-.648,1.15,1.15,0,0,0-.427-.461,1.361,1.361,0,0,0-.668-.194l-3.35-.158.042-.888,3.358.159a2.127,2.127,0,0,1,1.076.329,2.055,2.055,0,0,1,.721.792,2.147,2.147,0,0,1,.226,1.109m1.433-8.959-5.254-1.288-.211.863,3.626.889-4.306,1.889-.147.6,5.254,1.288.211-.863-3.626-.888,4.306-1.889Zm1.04-2.736-4.994-2.079.341-.82,4.994,2.079ZM-13.4-126.65l-.481.82,2.619,3.337-4.183-.671-.489.833,5.772.852.313-.533Zm8.147-1.534-.62-.523-1.773,2.1-1.194-1.005,1.6-1.9-.6-.5-1.6,1.9-1.105-.931,1.748-2.074-.62-.523-2.321,2.754L-7.6-125.4Zm4.368-3.89.869-.707-2.928-.587a1.9,1.9,0,0,0,.452-.607,1.436,1.436,0,0,0,.123-.8,1.543,1.543,0,0,0-.352-.77,1.517,1.517,0,0,0-.67-.486,1.5,1.5,0,0,0-.816-.054,1.885,1.885,0,0,0-.825.407L-6.6-134.4l3.414,4.2.689-.561-1.449-1.781.178-.145Zm-4.539-2.285.851-.692a.84.84,0,0,1,.638-.22.791.791,0,0,1,.535.3.768.768,0,0,1,.2.6.9.9,0,0,1-.361.567l-.845.688Zm8.747-.366a2.351,2.351,0,0,1-1.064.33,2.488,2.488,0,0,1-1.034-.2l.232-.82a1.684,1.684,0,0,0,.713.181,1.538,1.538,0,0,0,.776-.227,1.23,1.23,0,0,0,.533-.511.588.588,0,0,0-.017-.575.673.673,0,0,0-.336-.316,1.088,1.088,0,0,0-.458-.067,3.755,3.755,0,0,0-.537.07q-.283.057-.577.093a2.257,2.257,0,0,1-.576,0,1.251,1.251,0,0,1-.535-.205,1.493,1.493,0,0,1-.457-.532,1.384,1.384,0,0,1-.193-.826,1.5,1.5,0,0,1,.305-.76,2.191,2.191,0,0,1,.7-.593,2.116,2.116,0,0,1,.935-.284,2.011,2.011,0,0,1,.857.131l-.232.82a1.656,1.656,0,0,0-.612-.1,1.261,1.261,0,0,0-.565.17,1.071,1.071,0,0,0-.47.45.528.528,0,0,0,.024.509.563.563,0,0,0,.316.279,1.128,1.128,0,0,0,.445.043,5.207,5.207,0,0,0,.535-.073q.285-.053.581-.086a2.136,2.136,0,0,1,.584.014,1.336,1.336,0,0,1,.549.229,1.643,1.643,0,0,1,.473.559,1.416,1.416,0,0,1,.114,1.256,2.109,2.109,0,0,1-1,1.049m4.223-2.112L5.59-141.882l.829-.321,1.954,5.045Zm6.028-6.57-.19-.789-4.29,1.034.19.789,1.713-.413,1.077,4.47.864-.208-1.078-4.47Zm6.8-1.481-1.01.071-1.248,2.306-1.559-2.108-1.025.072,2.2,2.908.165,2.348.887-.062-.168-2.382Zm7.282,6.216a2.709,2.709,0,0,1-1.021-.419,2.762,2.762,0,0,1-.75-.756,2.777,2.777,0,0,1-.411-.985,2.775,2.775,0,0,1,0-1.106,2.745,2.745,0,0,1,.415-1.021,2.828,2.828,0,0,1,.745-.757,2.686,2.686,0,0,1,.971-.417,2.718,2.718,0,0,1,1.1,0,2.713,2.713,0,0,1,1.018.415,2.726,2.726,0,0,1,.747.751,2.79,2.79,0,0,1,.411.985,2.785,2.785,0,0,1,0,1.106,2.777,2.777,0,0,1-.416,1.025,2.769,2.769,0,0,1-.745.756,2.763,2.763,0,0,1-.971.417,2.654,2.654,0,0,1-1.092.008m.147-.837a1.838,1.838,0,0,0,.992-.059,1.745,1.745,0,0,0,.768-.547,2.093,2.093,0,0,0,.424-.945,2.152,2.152,0,0,0,.016-.788,1.819,1.819,0,0,0-.259-.672,1.7,1.7,0,0,0-.5-.5,1.936,1.936,0,0,0-.706-.279,1.848,1.848,0,0,0-.983.056,1.727,1.727,0,0,0-.766.54,2.066,2.066,0,0,0-.423.941,2.213,2.213,0,0,0-.017.8,1.788,1.788,0,0,0,.254.675,1.712,1.712,0,0,0,.5.5,1.89,1.89,0,0,0,.7.282m9.941-.838.3-.752L34.8-142.408l-2.026,5.016.824.333.868-2.15,2.293.926.3-.752-2.293-.926.55-1.361Zm7.217,7.092.465-.627-2-1.481.861-1.161,2.179,1.615.483-.652-2.893-2.144-3.221,4.347,2.925,2.167.483-.652-2.211-1.638.929-1.254Zm7.1,2.7-2.409.355.514-2.4-.714-.771-.656,3.17-3.378.436.677.732,2.657-.357-.626,2.552.7.76.776-3.305,3.132-.437Zm.616,5.863,1.328,2.1.66-.416-1.328-2.1,1.222-.771,1.447,2.294.686-.433-1.922-3.045L50.2-124.181l1.942,3.079.686-.433-1.468-2.327Zm6.353,7.717.75-.31-1.686-4.078-.75.31.673,1.628-4.249,1.757.34.821,4.249-1.757Zm-2.572,4.817,1.525-.333.53,2.431.763-.167-.531-2.431,1.412-.308.578,2.65.793-.173-.768-3.519-5.285,1.153.776,3.556.793-.173Zm5.515,5.256-5.406.19.031.888,2.294-.08.008.229-2.229,1.929.039,1.12,2.235-1.98a1.9,1.9,0,0,0,.211.727,1.441,1.441,0,0,0,.562.58,1.542,1.542,0,0,0,.826.183,1.515,1.515,0,0,0,.792-.24,1.508,1.508,0,0,0,.535-.618,1.886,1.886,0,0,0,.173-.9Zm-.912,2.653a.791.791,0,0,1-.564.244.768.768,0,0,1-.6-.207.9.9,0,0,1-.235-.63l-.038-1.089,1.607-.056.038,1.1a.84.84,0,0,1-.209.641m-78.411,8.212a.537.537,0,0,1,.084-.431.566.566,0,0,1,.368-.234.562.562,0,0,1,.433.076.541.541,0,0,1,.238.366.543.543,0,0,1-.08.43.564.564,0,0,1-.371.235.567.567,0,0,1-.429-.077.537.537,0,0,1-.242-.366m5.057,5.967-.352-.816-4.968,2.141,1.361,3.158.745-.321-1.009-2.342Zm-1.337,9.155a2.167,2.167,0,0,1-.37-1.07,2.055,2.055,0,0,1,.214-1.06,2.132,2.132,0,0,1,.759-.837l2.8-1.841.488.743-2.8,1.838a1.35,1.35,0,0,0-.48.514,1.16,1.16,0,0,0-.126.624,1.3,1.3,0,0,0,.22.623,1.272,1.272,0,0,0,.485.449,1.155,1.155,0,0,0,.616.122,1.364,1.364,0,0,0,.654-.236l2.8-1.842.488.743-2.81,1.846a2.132,2.132,0,0,1-1.063.366,2.054,2.054,0,0,1-1.049-.217,2.144,2.144,0,0,1-.835-.764m5.287,6.507a2.738,2.738,0,0,1-.607-.925,2.638,2.638,0,0,1-.183-1.037A2.685,2.685,0,0,1-8.9-77.4a2.914,2.914,0,0,1,.636-.9,2.923,2.923,0,0,1,.917-.616,2.647,2.647,0,0,1,1.032-.21,2.728,2.728,0,0,1,1.034.205,2.7,2.7,0,0,1,.914.625,2.745,2.745,0,0,1,.64.963,2.852,2.852,0,0,1,.175,1.018L-4.4-76.33a1.663,1.663,0,0,0-.115-.7,2.029,2.029,0,0,0-.454-.675,1.886,1.886,0,0,0-.613-.427,1.663,1.663,0,0,0-.687-.133,1.8,1.8,0,0,0-.7.162,2.236,2.236,0,0,0-.65.452,2.237,2.237,0,0,0-.466.64,1.794,1.794,0,0,0-.177.7,1.664,1.664,0,0,0,.118.69,1.88,1.88,0,0,0,.414.622,2.088,2.088,0,0,0,.694.494,1.7,1.7,0,0,0,.7.128l-.009.853a2.712,2.712,0,0,1-1.036-.208,2.885,2.885,0,0,1-.96-.672m9.751,1.886.465-.665-2.95-2.065-3.1,4.431L-1.2-68.736l.465-.665-2.254-1.578.9-1.279L-.053-70.83l.448-.639L-1.644-72.9l.829-1.184Zm7.014,2.548L5.2-67.7l-.533-3.908L4.1-71.857,1.941-66.9l.815.354,1.382-3.177.384,2.8.567.247L7.4-68.3,6.015-65.124l.815.355L8.989-69.73Zm7.5,7.357a2.346,2.346,0,0,1-1.054-.36,2.487,2.487,0,0,1-.717-.771l.67-.527a1.685,1.685,0,0,0,.469.566,1.54,1.54,0,0,0,.761.274,1.23,1.23,0,0,0,.732-.1.588.588,0,0,0,.325-.475.675.675,0,0,0-.086-.454,1.09,1.09,0,0,0-.331-.324,3.854,3.854,0,0,0-.475-.259q-.262-.12-.521-.265a2.254,2.254,0,0,1-.465-.34,1.251,1.251,0,0,1-.312-.481,1.5,1.5,0,0,1-.056-.7,1.382,1.382,0,0,1,.331-.782,1.5,1.5,0,0,1,.694-.435,2.193,2.193,0,0,1,.911-.07,2.124,2.124,0,0,1,.923.32,2.014,2.014,0,0,1,.616.611l-.67.527a1.659,1.659,0,0,0-.433-.445,1.253,1.253,0,0,0-.556-.195,1.069,1.069,0,0,0-.645.086.527.527,0,0,0-.28.425.564.564,0,0,0,.091.412,1.133,1.133,0,0,0,.334.3,5.305,5.305,0,0,0,.475.255q.261.125.52.272a2.16,2.16,0,0,1,.464.355,1.33,1.33,0,0,1,.309.508,1.633,1.633,0,0,1,.053.73,1.416,1.416,0,0,1-.647,1.082,2.109,2.109,0,0,1-1.428.257m9.048.066-.042-.81-2.748.143L22.1-64.78l2.485-.129-.04-.779-2.485.129L21.985-67l2.709-.141-.042-.811-3.6.187.28,5.4Zm8.806-2.016-1.023-.61a2.819,2.819,0,0,0,.177-.639,2.773,2.773,0,0,0-.06-1.1,2.773,2.773,0,0,0-.472-1,2.777,2.777,0,0,0-.791-.716,2.728,2.728,0,0,0-1-.362,2.719,2.719,0,0,0-1.1.059,2.727,2.727,0,0,0-.993.47,2.686,2.686,0,0,0-.7.791,2.823,2.823,0,0,0-.352,1,2.745,2.745,0,0,0,.059,1.1,2.775,2.775,0,0,0,.473,1,2.78,2.78,0,0,0,.791.716,2.766,2.766,0,0,0,1,.364,2.7,2.7,0,0,0,1.1-.055,2.664,2.664,0,0,0,.984-.473,2.8,2.8,0,0,0,.465-.457l1.019.608Zm-2.235-.279a1.842,1.842,0,0,1-.872.476,1.9,1.9,0,0,1-.754.043,1.708,1.708,0,0,1-.663-.242,1.8,1.8,0,0,1-.518-.5,2.2,2.2,0,0,1-.323-.727,2.068,2.068,0,0,1-.018-1.032,1.728,1.728,0,0,1,.464-.815,1.845,1.845,0,0,1,.866-.47,1.93,1.93,0,0,1,.757-.048,1.691,1.691,0,0,1,.663.243,1.827,1.827,0,0,1,.521.5,2.163,2.163,0,0,1,.322.72A2.087,2.087,0,0,1,32-65.671c0,.013-.008.025-.012.037l-1.172-.7-.414.695,1.2.715c-.022.024-.041.05-.064.073m7.331-1.612a2.172,2.172,0,0,1-1.109.23,2.058,2.058,0,0,1-1.024-.348,2.126,2.126,0,0,1-.732-.86l-1.467-3.017.8-.389L36.8-67.835a1.352,1.352,0,0,0,.448.543,1.165,1.165,0,0,0,.6.205,1.3,1.3,0,0,0,.646-.138,1.275,1.275,0,0,0,.508-.423,1.153,1.153,0,0,0,.2-.6,1.362,1.362,0,0,0-.15-.679L37.592-71.94l.8-.389,1.47,3.023a2.131,2.131,0,0,1,.226,1.1,2.055,2.055,0,0,1-.35,1.012,2.148,2.148,0,0,1-.865.73m5-2.967-3.067-4.456.732-.5,3.067,4.456Zm7.617-6.481-3.767-3.883-.444.43.877,3.846-3.817-.994-.444.43L47.663-72.2l.638-.619L45.889-75.3l2.734.71.444-.43-.626-2.755,2.412,2.487Zm3.683-4.74a2.171,2.171,0,0,1-.841.758,2.057,2.057,0,0,1-1.06.216,2.127,2.127,0,0,1-1.066-.373l-2.788-1.864.494-.739,2.782,1.86a1.347,1.347,0,0,0,.661.242,1.162,1.162,0,0,0,.624-.127,1.3,1.3,0,0,0,.488-.445,1.273,1.273,0,0,0,.225-.621,1.154,1.154,0,0,0-.128-.616,1.365,1.365,0,0,0-.472-.511L51.3-84.732l.494-.739L54.592-83.6a2.126,2.126,0,0,1,.751.837,2.052,2.052,0,0,1,.209,1.05,2.144,2.144,0,0,1-.378,1.067m4.053-7.9.437-1.032-2.862.852a1.905,1.905,0,0,0,.115-.748,1.438,1.438,0,0,0-.265-.762,1.543,1.543,0,0,0-.672-.515,1.511,1.511,0,0,0-.819-.116,1.506,1.506,0,0,0-.746.334,1.891,1.891,0,0,0-.538.745l-.789,1.865,4.982,2.109.346-.818-2.114-.9.089-.211Zm-5.08.107.427-1.011a.839.839,0,0,1,.461-.493.789.789,0,0,1,.614.016.769.769,0,0,1,.456.44.9.9,0,0,1-.053.67l-.425,1Zm4.906-7.611a.536.536,0,0,1-.242.366.566.566,0,0,1-.429.077.563.563,0,0,1-.371-.235.54.54,0,0,1-.08-.429.541.541,0,0,1,.238-.366.563.563,0,0,1,.433-.076.567.567,0,0,1,.367.234.536.536,0,0,1,.085.43" transform="translate(20.413 144.888)" fill="#003b3b"/>
    </g>
    <g id="Group_193" data-name="Group 193" transform="translate(161.104 18.466)">
      <path id="Path_223" data-name="Path 223" d="M-11.472-5.736a2.159,2.159,0,0,1-2.159,2.159A2.159,2.159,0,0,1-15.79-5.736a2.159,2.159,0,0,1,2.159-2.159,2.159,2.159,0,0,1,2.159,2.159" transform="translate(15.79 7.895)" fill="#fff"/>
    </g>
    <g id="Group_194" data-name="Group 194" transform="translate(224.299 57.328)">
      <path id="Path_224" data-name="Path 224" d="M-25.465-4.3a3.907,3.907,0,0,1,.392.019c2.353.219,3.882,2.394,4.617,5.361H-30.473c.776-3.131,2.484-5.38,5.008-5.38m-9.529,7.183a10.437,10.437,0,0,0-.056,1.076,10.038,10.038,0,0,0,9.77,9.878A9.333,9.333,0,0,0-16.4,6.485h-1.758c-.944,3.008-3.352,5.147-6.175,5.147-.152,0-.3-.006-.451-.019-3.323-.27-5.827-3.511-6-7.541,0-.067,0-.134-.006-.2s0-.137,0-.206,0-.137,0-.206,0-.147.007-.22.007-.136.012-.2l0-.078c0-.027,0-.051.006-.077h14.6a10.28,10.28,0,0,0-.342-1.8,9.469,9.469,0,0,0-8.935-7,9.818,9.818,0,0,0-9.227,7,10.3,10.3,0,0,0-.341,1.8" transform="translate(35.049 5.922)" fill="#fff"/>
    </g>
    <g id="Group_195" data-name="Group 195" transform="translate(111.538 16.954)">
      <path id="Path_225" data-name="Path 225" d="M-7.2-46.462V-59.871a4.179,4.179,0,0,0-1.773-3.417l-.939-.661H-.8l-.935.661A4.18,4.18,0,0,0-3.5-59.875v12.55c0,4.1.847,9.1,7.54,9.1,7.307,0,7.307-6.228,7.307-9.1v-12.4a4.18,4.18,0,0,0-1.959-3.541L8.3-63.949h7.924l-.956.663a4.18,4.18,0,0,0-1.8,3.435v13.24c0,6.776-3.72,10.379-10.4,10.379-6.576,0-10.28-3.62-10.28-10.23" transform="translate(9.914 63.949)" fill="#fff"/>
    </g>
    <g id="Group_196" data-name="Group 196" transform="translate(138.404 24.909)">
      <path id="Path_226" data-name="Path 226" d="M-48.863-49.661l.658.54h-7.541l.651-.54a4.18,4.18,0,0,0,1.512-3.218v-8.748c0-2.757-.864-4.268-3.87-4.268a7.059,7.059,0,0,0-4.484,1.561v11.362a4.18,4.18,0,0,0,1.651,3.328l.688.522h-7.641l.638-.542a4.18,4.18,0,0,0,1.475-3.187v-9.544a4.18,4.18,0,0,0-1.216-2.947l-.914-.919,4.887-2.093s.24,1.885.382,2.89a7.694,7.694,0,0,1,5.979-2.89c4.285,0,5.613,2.591,5.613,6.261v9.2a4.18,4.18,0,0,0,1.531,3.233" transform="translate(67.255 68.353)" fill="#fff"/>
    </g>
    <g id="Group_197" data-name="Group 197" transform="translate(159.538 24.909)">
      <path id="Path_227" data-name="Path 227" d="M-.045-51.095l.638-.542a4.18,4.18,0,0,0,1.475-3.186V-64.4A4.18,4.18,0,0,0,.793-67.407l-.855-.827,5.319-2.093V-54.95a4.18,4.18,0,0,0,1.636,3.317l.7.539Z" transform="translate(0.062 70.326)" fill="#fff"/>
    </g>
    <g id="Group_198" data-name="Group 198" transform="translate(237.949 18.466)">
      <path id="Path_228" data-name="Path 228" d="M-11.472-5.736a2.159,2.159,0,0,1-2.159,2.159A2.159,2.159,0,0,1-15.79-5.736a2.159,2.159,0,0,1,2.159-2.159,2.159,2.159,0,0,1,2.159,2.159" transform="translate(15.79 7.895)" fill="#fff"/>
    </g>
    <g id="Group_199" data-name="Group 199" transform="translate(236.384 24.909)">
      <path id="Path_229" data-name="Path 229" d="M-.045-51.095l.638-.542a4.18,4.18,0,0,0,1.475-3.186V-64.4A4.18,4.18,0,0,0,.793-67.407l-.855-.827,5.319-2.093V-54.95a4.18,4.18,0,0,0,1.636,3.317l.7.539Z" transform="translate(0.062 70.326)" fill="#fff"/>
    </g>
    <g id="Group_200" data-name="Group 200" transform="translate(167.024 25.458)">
      <path id="Path_230" data-name="Path 230" d="M-39,0l.013.014a4.01,4.01,0,0,1,.541,3.821L-42.016,13.3c-.232.6-.414,1.179-.6,1.76-.165-.581-.349-1.162-.581-1.76l-3.651-9.455a4.029,4.029,0,0,1-.27-1.444,4.013,4.013,0,0,1,.8-2.4h-7.359a10.139,10.139,0,0,1,3.653,4.671l5.382,14.011c.029,0,2.479,0,2.508,0l5.6-14.051A10.434,10.434,0,0,1-35.04,2.052,10.373,10.373,0,0,1-32.881,0Z" transform="translate(53.674)" fill="#fff"/>
    </g>
    <g id="Group_201" data-name="Group 201" transform="translate(206.36 24.752)">
      <path id="Path_231" data-name="Path 231" d="M-33.806,0a8.483,8.483,0,0,0-7.638,4.409L-41.826.158-46.354,2.25l.868.967A4.18,4.18,0,0,1-44.417,6.01V15.66a4.18,4.18,0,0,1-1.475,3.187l-.639.542h7.877l-.784-.546a4.18,4.18,0,0,1-1.791-3.43V6.358A8.183,8.183,0,0,1-33.806,4.3Z" transform="translate(46.53)" fill="#fff"/>
    </g>
    <g id="Group_202" data-name="Group 202" transform="translate(244.932 18.745)">
      <path id="Path_232" data-name="Path 232" d="M-31.99-61.338c-4.085.947-5.63.266-5.63-2.475V-75.77h8.759l-3.03-1.973h-5.73v-6.682l-3.255,2.875v3.807H-44.03v1.973h3.155V-62.8c0,2.026,1.03,4.119,4.451,4.119a7.762,7.762,0,0,0,4.766-1.727Z" transform="translate(44.03 84.425)" fill="#fff"/>
    </g>
    <g id="Group_203" data-name="Group 203" transform="translate(255.908 25.428)">
      <path id="Path_233" data-name="Path 233" d="M-37.023-.079l.02.019a4.015,4.015,0,0,1,1.074,4.293q-1.585,4.5-3.172,8.991c-.282.814-.532,1.611-.781,2.491q-.349-1.27-.8-2.491l-3.243-8.8a4.014,4.014,0,0,1,1.234-4.5l-8.271-.03V.668l2.507,1.2,6.327,16.8h1.163s-2.489,5.477-6.523,5.477l1.55,2.732c3.716-1.064,6.16-6.6,8.294-12.286l4.294-11.462a6.27,6.27,0,0,1,1.613-2.4l.865-.8Z" transform="translate(50.958 0.109)" fill="#fff"/>
    </g>
    <g id="Group_204" data-name="Group 204" transform="translate(112.563 57.316)">
      <path id="Path_234" data-name="Path 234" d="M0-32.828c0-6.494,5.214-12.356,11.854-12.356,4.531,0,6.932,2.358,6.932,7.208,0,6.494-5.214,12.356-11.854,12.356C2.4-25.621,0-27.979,0-32.828m15.037-7.008c0-2.491-.762-3.886-3.222-3.87-4.667.033-8.065,6.776-8.065,12.738,0,2.491.762,3.886,3.222,3.869,4.667-.033,8.065-6.776,8.065-12.738" transform="translate(0 45.184)" fill="#fff"/>
    </g>
    <g id="Group_205" data-name="Group 205" transform="translate(152.441 49.361)">
      <path id="Path_235" data-name="Path 235" d="M-53.433-59.318l-.332,4.86H-73.545l.947-.663a4.179,4.179,0,0,0,1.782-3.421l.013-19.007a4.179,4.179,0,0,0-1.792-3.434l-.951-.662H-54.38l.425,4.656-4.172-2.047a10.005,10.005,0,0,0-4.37-1.024c-1.1,0-2.622-.008-4.6-.008v10.28h3.583a16.945,16.945,0,0,0,3.47-.359l3.728-.78v3.841l-3.543-.8a16.925,16.925,0,0,0-3.746-.419h-3.44l-.052,12.09,4.166,0a12.532,12.532,0,0,0,5.249-1.147Z" transform="translate(73.545 81.644)" fill="#fff"/>
    </g>
    <g id="Group_206" data-name="Group 206" transform="translate(173.693 57.864)">
      <path id="Path_236" data-name="Path 236" d="M-52.476-49.581l.034.022h-8.31l.031-.032a2.9,2.9,0,0,0,.316-3.685l-2.685-3.872q-1.311,1.778-2.619,3.542a2.9,2.9,0,0,0,.578,4.033l.019.014h-6.73l.224-.174a20.9,20.9,0,0,0,3.6-3.58l3.916-4.982L-68.1-64.1a16.152,16.152,0,0,0-3.994-4.044l-.135-.1h8.344l-.075.069a2.9,2.9,0,0,0-.429,3.75l2.46,3.637Q-60.62-62.54-59.3-64.3a2.9,2.9,0,0,0-.44-3.943h0l6.746.008-.5.389a20.907,20.907,0,0,0-3.472,3.4l-3.92,4.855,3.962,5.7a16.154,16.154,0,0,0,4.444,4.312" transform="translate(72.227 68.242)" fill="#fff"/>
    </g>
    <g id="Group_207" data-name="Group 207" transform="translate(212.097 51.22)">
      <path id="Path_237" data-name="Path 237" d="M-17.031-54.764V-66.688h4.792V-68.7h-4.792v-6.675L-20.286-72.5v3.8h-3.155v2.014h3.155V-53.75c0,2.026,1.03,4.119,4.451,4.119a7.761,7.761,0,0,0,4.766-1.727l-.332-.93c-4.085.947-5.63.266-5.63-2.475" transform="translate(23.441 75.376)" fill="#fff"/>
    </g>
    <g id="Group_208" data-name="Group 208" transform="translate(186.53 24.944)">
      <path id="Path_238" data-name="Path 238" d="M-25.465-4.3a3.907,3.907,0,0,1,.392.019c2.353.219,3.882,2.394,4.617,5.361H-30.473c.776-3.131,2.484-5.38,5.008-5.38M-34.993,2.88a10.447,10.447,0,0,0-.056,1.077,10.038,10.038,0,0,0,9.77,9.878A9.333,9.333,0,0,0-16.4,6.485h-1.758c-.944,3.008-3.352,5.147-6.175,5.147-.152,0-.3-.006-.451-.019-3.323-.27-5.827-3.511-6-7.541,0-.067,0-.134-.006-.2s0-.137,0-.206,0-.137,0-.206,0-.147.007-.22.007-.136.012-.2l0-.079c0-.026,0-.051.006-.077h14.6a10.277,10.277,0,0,0-.342-1.8,9.469,9.469,0,0,0-8.935-7,9.818,9.818,0,0,0-9.227,7,10.3,10.3,0,0,0-.341,1.8" transform="translate(35.049 5.922)" fill="#fff"/>
    </g>
    <g id="Group_209" data-name="Group 209" transform="translate(192.639 57.328)">
      <path id="Path_239" data-name="Path 239" d="M-25.465-4.3a3.907,3.907,0,0,1,.392.019c2.353.219,3.882,2.394,4.617,5.361H-30.473c.776-3.131,2.484-5.38,5.008-5.38m-9.529,7.183a10.437,10.437,0,0,0-.056,1.076,10.038,10.038,0,0,0,9.77,9.878A9.333,9.333,0,0,0-16.4,6.485h-1.758c-.944,3.008-3.352,5.147-6.175,5.147-.152,0-.3-.006-.451-.019-3.323-.27-5.827-3.511-6-7.541,0-.067,0-.134-.006-.2s0-.137,0-.206,0-.137,0-.206,0-.147.007-.22.007-.136.012-.2l0-.078c0-.027,0-.051.006-.077h14.6a10.28,10.28,0,0,0-.342-1.8,9.469,9.469,0,0,0-8.935-7,9.818,9.818,0,0,0-9.227,7,10.3,10.3,0,0,0-.341,1.8" transform="translate(35.049 5.922)" fill="#fff"/>
    </g>
    <g id="Group_210" data-name="Group 210" transform="translate(212.097 51.22)">
      <path id="Path_240" data-name="Path 240" d="M-17.031-54.764V-66.688h4.792V-68.7h-4.792v-6.675L-20.286-72.5v3.8h-3.155v2.014h3.155V-53.75c0,2.026,1.03,4.119,4.451,4.119a7.761,7.761,0,0,0,4.766-1.727l-.332-.93c-4.085.947-5.63.266-5.63-2.475" transform="translate(23.441 75.376)" fill="#fff"/>
    </g>
    <g id="Group_211" data-name="Group 211" transform="translate(128.112 46.214)">
      <path id="Path_241" data-name="Path 241" d="M-45.707,0a5.98,5.98,0,0,1,3.418,1.08l-1.284,2.384a8.081,8.081,0,0,0-3.99-1.507c-2.876,0-3.143,4.3-4.18,9.663h5.262v1.864l-5.629.042-3.26,16.936c-.719,3.728-2.859,6.286-6.855,8.644l-.685-.569a16.574,16.574,0,0,0,4.48-9.112l3.01-15.9h-3.227l.021-.086V11.62h3.56c.15-.763.282-1.51.432-2.257C-53.582,3.812-50.138,0-45.707,0" transform="translate(62.911)" fill="#fff"/>
    </g>
    <g id="Group_212" data-name="Group 212" transform="translate(220.32 24.826)">
      <path id="Path_242" data-name="Path 242" d="M-29.133-39.889c0-1.839-1.346-2.592-3.218-3.361l-2.006-.819c-2.391-.969-4.915-2.19-4.915-5.484,0-3.31,2.681-5.35,6.821-5.35a13.277,13.277,0,0,1,5.911,1.666c-.779,1.447-1.086,2-1.754,3.284,0,0-1.544-3.219-4.626-3.236-1.839-.01-3.168.827-3.168,2.6s1.639,2.709,3.929,3.628l1.939.786c2.826,1.137,4.514,2.424,4.514,5.383,0,3.578-3.126,5.785-7.64,5.785-2.241,0-5.58-1.167-6.752-2.652l2.341-2.746c.71,1.615,2.978,3.685,4.938,3.685,2.224,0,3.687-1.012,3.687-3.168" transform="translate(40.098 54.902)" fill="#fff"/>
    </g>
    <g id="Group_213" data-name="Group 213" transform="translate(244.607 57.063)">
      <path id="Path_243" data-name="Path 243" d="M-33.806,0a8.483,8.483,0,0,0-7.638,4.409L-41.826.158-46.354,2.25l.868.967A4.18,4.18,0,0,1-44.417,6.01V15.66a4.18,4.18,0,0,1-1.475,3.187l-.639.542h5.746l1.347-.546a4.18,4.18,0,0,1-1.791-3.43V6.358A8.184,8.184,0,0,1-33.806,4.3Z" transform="translate(46.53)" fill="#fff"/>
    </g>
  </g>
</svg>
