<?xml version="1.0" encoding="UTF-8"?>
<svg id="Layer_1" data-name="Layer 1" xmlns="http://www.w3.org/2000/svg" viewBox="0 0 425.2 148.18">
  <defs>
    <style>
      .cls-1 {
        fill: #fff;
      }
    </style>
  </defs>
  <path class="cls-1" d="M412.43,48.92c-1.6-1.6-2.91-1.04-2.91-1.04,0,0-2,.74-5,0-3.21-.79-2.9-1.3-2.9-1.3,0,0-.03-.41,0-.6,.25-1.3-.11-2.62,.13-3.91,.07-.4,.6-.08,.98-.14,.17-.84,.34-1.89,.5-3.18-.02-.34-.05-.68-.03-1.03,.04-.88,.21-1.74,.36-2.6,.03-.39,.05-.79,.07-1.21,.4-7.8-6.8-11.9-6.8-11.9,1.1-1.5,1.4-3.8,1.5-4.5,.08-.57,.62-3.14,.98-5.07,0-.91,.01-1.82-.03-2.73-.07-1.45-.37-2.93-.02-4.36-.03-.24-.05-.44-.07-.6-.03-.24-.1-.46-.24-.66-2.36-3.36-10-4.34-13.11-2.2-3.2,2.2-1.92,8.11-1.92,8.11,0,0-.33-.46-.94-.17-.61,.29-.59,1.54-.27,2.08,0,0,.24,.66,.51,.93s.52,.91,1.22,1.35c.96,.6,1.4,1.21,1.3,3.01-.09,1.42-.3,1.67-.3,1.67-.34,.29-.58,.19-1.64,.24-1.06,.05-2.37,.79-2.37,.79-1.6,.4-4.7,1.3-7.4,2.8-1.11,.62-2.22,2.1-3.25,3.81-.01,.05-.03,.1-.04,.15-.07,.24-.17,.48-.28,.7-.19,.37-.47,.69-.7,1.04-.03,.05-.08,.11-.11,.16-.52,1-.99,1.99-1.41,2.86-.02,.12-.04,.24-.06,.35-.08,.47-.21,.9-.41,1.34-.35,.78-.9,1.46-1.47,2.09-.32,.59-.68,1.3-1.06,2.08-.02,.11,.83,1.16,.88,.96,0,0-1.11,3.17-1.5,4.16-.49,1.26-.98,2.55-1.08,3.9-.2,2.68,1.66,4.48,3.78,5.81-.03,.13-.05,.3-.08,.46,.06,.17,.09,.35,.04,.56-.3,1.26,.09,2.55-.18,3.83-.05,.24-.09,.47-.12,.7,0,.36,0,.72-.01,1.09,.07,.5,.2,.99,.31,1.48,.25,1.15,.39,2.32-.05,3.45-.24,.61-.54,1.22-.88,1.79-.19,.63-.42,1.25-.66,1.86,0,.07,.03,.15,.01,.22,0,.03-.04,.07-.05,.1,0,.2,.02,.4,.01,.59-.01,.47-.09,.98-.32,1.39-.15,.27-.4,.46-.67,.59-.08,.12-.21,.19-.33,.27-.3,.71-.53,1.34-.63,1.83-.4,2-.8,7.2-.7,7.9,.1,.7,3.3,1.2,3.3,1.2,1.2,1.7,1,7,1,7,0,0-.6-.8-1.4-1.7-.8-.9-1.3-1.3-2.7-1.3s-3,1.3-3.4,5.7c-.4,4.4-1.6,3.4-2.5,8.8-.9,5.4,2.8,9.7,6.1,9.5,3.3-.2,2.8-6.6,2.8-6.6l.4,.2c.4,.2,4.3,5.1,6.7,7.3,2.4,2.2,5.4,.3,7-3.4,1.6-3.7,.6-8.8,0-11-.6-2.2-.2-11-.2-11l1.6,.2,.1,1.3c.1,1.3,4.1,9.5,5.2,11.8,1.1,2.3,1.2,4.2,1.3,6.7,.1,2.5-1.32,10.64-1.22,12.74,.1,2.1,1.32,14.07,1.32,14.07,0,0-.5,1.1-.2,2,.3,.9-1.1,4-.9,5.3,.2,1.3,1,4,1.6,4.8,.6,.8,1.23,4.23,5.6,4.32,3.37,.06,5.84-2.71,4.67-4.56-1.37-2.15-4.07-7.57-4.07-7.57,0,0-.6-.7-1.1-2.2-.5-1.5,.06-7.14,.26-9.44,.2-2.3,1.84-7.97,2.04-10.47,.2-2.5,.6-15.31,1.2-17.71,.46-1.84,1.21-10.03,1.4-14.6,.15-3.58-.69-7.13-.27-10.74,.05-.46,.12-.93,.03-1.39-.15-.69-.67-1.26-.85-1.94-.2-.74-.04-1.51-.3-2.23-.26-.74-.84-1.33-1.07-2.1-.19-.3-.39-.6-.54-.93-.35-.78-.37-1.64-.47-2.48-.08-.63-.16-1.25-.23-1.88,0-.03,0-.06-.01-.08-.02-.19-.05-.38-.07-.57-.02-.18,.05-.34,.14-.49,.01-.06,.02-.13,.04-.19,.5-1.6,.4-5.3,.4-5.3,0,0,.26-.08,.86,.32,.6,.4,2.57,1.12,4.47,1.32,1.9,.2,2.89,.51,4.37,1.16,1.09,.48,.97,1.65,3.3,.9,.49-.16,1.19,.56,2.3,.7,1.27,.16,1.76-1.16,1.76-1.16,0,0,1.24-4.04-.36-5.64Z"/>
  <path class="cls-1" d="M360.85,30.91c-.45-1.7-1.48-3.32-2.95-4.31-1.01-.68-2.23-.91-3.25-1.62-.59-.41-1.14-.9-1.75-1.28-.49-.3-1.69-.8-1.69-.8-.71-.38-1.56-.96-1.18-1.92,1.74-.14,3.07-3.9,3.77-6.28,1.24-4.21,2.84-7.53,.13-11.5-1.65-2.42-4.87-3.6-7.76-3.09-2.89,.51-5.58,2.41-6.4,5.23-.37-1.21-1.65-1.7-2.83-1.66-2.07,.07-3.41,1.36-4.58,2.91-.85,1.11-1.35,2.27-1.54,3.66-.13,.96-.12,1.98-.4,2.91-.25,.83-.83,1.52-.89,2.41-.06,.76,.25,1.49,.24,2.25-.02,.78-.35,1.5-.49,2.26-.12,.64-.04,1.27-.06,1.92-.02,.59-.09,1.21-.24,1.78-.05,.2-.11,.41-.13,.62-.04,.36-.02,.9,.15,1.24,.04,.08,.06,.17,.09,.25-1.53,.53-4.05,1.53-5.1,2.69-2.32,2.56-4.96,13.49-6.75,15.97-1.78,2.48-1.09,2.71-1.32,5.12-.23,2.4-.93,11.09-1.24,12.64-.31,1.55-1.63,4.65-1.86,5.74-.23,1.09,1.01,3.1,1.4,3.49,.39,.39,2.79,.39,3.57,.23s1.82-.12,1.9-.82c.08-.7,.19-.81-.35-1.2s-1.01-.78-1.09-1.32c-.08-.54-.23-1.09-.16-1.94,.08-.85,.78-5.31,1.32-7.64,.54-2.33,3.35-8.31,3.73-10.87s1.04-3.02,2.04-5.2c.8-1.72,1.82-4.01,3.32-5.14,1.54,6.52,1.05,13.51-1.43,19.74-1.32,3.32-3.19,6.43-4.25,9.85-1.8,5.83-1.11,12.21,.82,18,1.93,5.79,5.02,11.11,8.1,16.38-1.97,.87-4.01-.85-5.7-2.18-1.69-1.33-4.21-1.69-5.27,.19-.29,.52-.39,1.13-.39,1.72-.02,6.75-2.43,8.59-2.2,13.22,.05,1.04-.15,2.16,.38,3.06,1.36,2.34,5.95,1.06,7.07-1.41,1.12-2.47,.71-5.37,1.08-8.05,2.61,.34,5.23,.67,7.84,1.01-2.83,11.69,4.23,23.94,2.07,35.77-.13,.73-.26,1.6,.28,2.1,.28,.26,.66,.35,1.04,.41,3.34,.52,6.71-.82,9.6-2.57,1.89-1.14,3.79-2.64,4.36-4.78,.57-2.14-.97-4.87-3.17-4.69-1.52,.12-2.96,1.52-4.37,.95-1.13-.45-1.45-1.89-1.53-3.1-.47-7.1,1.82-14.11,1.98-21.22,.04-2.04-.09-4.09,.22-6.1,.31-2.04,1.05-3.98,1.79-5.91,3.8-9.95,7.56-20.47,6.01-31.01-.7-4.74-2.44-9.69-.7-14.15-.3,2.06,2.85,3.1,4.52,1.86,1.66-1.25,2.08-3.53,2.37-5.59,.59-4.15,1.17-8.3,1.76-12.44,.37-2.59,.73-5.27,.05-7.79Zm-21.4-10.13c-.38,.54-1.27,.93-1.8,1.33-.24,.18-2.33,1.21-2.33,1.29,0-3.16,.17-6.85,1.69-9.67,.36-.66,.99-1.01,1.7-1.24-.72,.24,.61,4.07,1.8,5.04,.77,.63-.48,2.44-1.06,3.26Z"/>
  <path class="cls-1" d="M155.5,107h6.86c1.23,0,1.93-.69,1.93-1.93V62.89h16.66c1.23,0,1.93-.69,1.93-1.93v-6.48c0-1.23-.69-1.93-1.93-1.93h-44.03c-1.23,0-1.93,.69-1.93,1.93v6.48c0,1.23,.69,1.93,1.93,1.93h16.66v42.18c0,1.23,.69,1.93,1.93,1.93Zm98.63-54.44c-1.23,0-1.93,.69-1.93,1.93v50.59c0,1.23,.69,1.93,1.93,1.93h33.08c12.72,0,18.2-6.55,18.2-20.13v-13.88c0-13.65-5.47-20.43-18.2-20.43h-33.08Zm40.72,20.51v13.65c0,8.48-3.01,10.1-8.87,10.1h-23.06V62.81h23.06c6.01,0,8.87,1.77,8.87,10.25Zm-88.6-20.51c-12.8,0-18.28,7.25-18.28,18.82v16.89c0,11.49,5.48,18.74,18.28,18.74h19.82c12.8,0,18.28-7.25,18.28-18.74v-16.89c0-11.57-5.48-18.82-18.28-18.82h-19.82Zm27.37,18.43v17.66c0,6.63-2.39,8.1-7.56,8.1h-19.82c-5.17,0-7.56-1.46-7.56-8.1v-17.66c0-6.71,2.24-8.17,7.56-8.17h19.82c5.4,0,7.56,1.46,7.56,8.17Zm-163.14-8.17c1.23,0,1.93-.69,1.93-1.93v-6.4c0-1.23-.69-1.93-1.93-1.93H28.3c-1.23,0-1.93,.69-1.93,1.93v50.59c0,1.23,.69,1.93,1.93,1.93h42.18c1.23,0,1.93-.69,1.93-1.93v-6.4c0-1.23-.69-1.93-1.93-1.93H37.01v-12.57h21.67c1.23,0,1.93-.69,1.93-1.93v-5.63c0-1.23-.69-1.93-1.93-1.93h-21.67v-11.87h33.47Zm8.41,44.18h8.87c1,0,1.7-.39,2.31-1.16l14.42-18.89,14.34,18.89c.62,.77,1.31,1.16,2.31,1.16h8.94c1.62,0,2.16-1.16,1.16-2.39l-20.28-25.83,18.66-23.83c1-1.23,.46-2.39-1.16-2.39h-8.94c-1,0-1.7,.39-2.31,1.16l-12.72,16.81-12.8-16.81c-.62-.77-1.31-1.16-2.31-1.16h-8.94c-1.62,0-2.16,1.16-1.16,2.39l18.74,23.83-20.28,25.83c-1,1.23-.46,2.39,1.16,2.39Zm252.1,15.13H7.59V37.42H316.46c.1-.3,.21-.59,.3-.86,.94-2.71,1.74-4.95,2.54-6.73H6.75c-3.72,0-6.75,2.97-6.75,6.63V123.1c0,3.65,3.03,6.63,6.75,6.63H332.34c-.09-.48-.18-.95-.27-1.43-.39-2.03-.78-4.09-1.08-6.16Zm16.22,0c-.4,2.61-.78,5.12-.9,7.59h38.41c-.21-2.07-.51-5.07-.74-7.59h-36.78ZM418.45,29.83h-11.73c.3,1.3,.46,2.72,.38,4.25-.02,.44-.05,.85-.08,1.26v.19s-.04,.18-.04,.18l-.07,.41c-.08,.46-.15,.89-.2,1.3h10.9V122.13h-19.39c-.23,1.06-.43,2.03-.47,2.58l-.06,.67c-.16,1.75-.26,3.18-.33,4.35h21.09c3.72,0,6.75-2.97,6.75-6.63V36.46c0-3.65-3.03-6.63-6.75-6.63Z"/>
</svg>